<?xml version="1.0" encoding="UTF-8" standalone="no"?>
<!-- Created with Inkscape (http://www.inkscape.org/) -->

<svg
   xmlns:dc="http://purl.org/dc/elements/1.1/"
   xmlns:cc="http://creativecommons.org/ns#"
   xmlns:rdf="http://www.w3.org/1999/02/22-rdf-syntax-ns#"
   xmlns:svg="http://www.w3.org/2000/svg"
   xmlns="http://www.w3.org/2000/svg"
   xmlns:sodipodi="http://sodipodi.sourceforge.net/DTD/sodipodi-0.dtd"
   xmlns:inkscape="http://www.inkscape.org/namespaces/inkscape"
   width="512"
   height="512"
   id="svg4055"
   version="1.1"
   inkscape:version="0.48.2 r9819"
   sodipodi:docname="icon.svg"
   inkscape:export-filename="/Users/johngrimes/git/wordpoints/assets/icon-128x128-r.png"
   inkscape:export-xdpi="22.5"
   inkscape:export-ydpi="22.5">
  <defs
     id="defs4057" />
  <sodipodi:namedview
     id="base"
     pagecolor="#ffffff"
     bordercolor="#666666"
     borderopacity="1.0"
     inkscape:pageopacity="0.0"
     inkscape:pageshadow="2"
     inkscape:zoom="0.53588673"
     inkscape:cx="214.13294"
     inkscape:cy="63.952614"
     inkscape:document-units="px"
     inkscape:current-layer="layer1"
     showgrid="false"
     showguides="false"
     inkscape:guide-bbox="true"
     inkscape:window-width="1680"
     inkscape:window-height="918"
     inkscape:window-x="0"
     inkscape:window-y="0"
     inkscape:window-maximized="1">
    <sodipodi:guide
       orientation="1,0"
       position="-326.27927,324.25897"
       id="guide4088" />
  </sodipodi:namedview>
  <metadata
     id="metadata4060">
    <rdf:RDF>
      <cc:Work
         rdf:about="">
        <dc:format>image/svg+xml</dc:format>
        <dc:type
           rdf:resource="http://purl.org/dc/dcmitype/StillImage" />
        <dc:title></dc:title>
      </cc:Work>
    </rdf:RDF>
  </metadata>
  <g
     inkscape:label="Layer 1"
     inkscape:groupmode="layer"
     id="layer1"
     transform="translate(0,-540.36218)">
    <rect
       style="fill:#99e8fc;fill-opacity:1;stroke:#000000;stroke-width:0;stroke-miterlimit:4;stroke-opacity:1;stroke-dasharray:none"
       id="rect4124"
       width="562.84869"
       height="526.24066"
       x="-16.260715"
       y="532.89136" />
    <flowRoot
       xml:space="preserve"
       id="flowRoot4063"
       style="fill:black;stroke:none;stroke-opacity:1;stroke-width:1px;stroke-linejoin:miter;stroke-linecap:butt;fill-opacity:1;font-family:MrsEavesSmartLigRoman;font-style:normal;font-weight:normal;font-size:144px;line-height:125%;letter-spacing:0px;word-spacing:0px;-inkscape-font-specification:MrsEavesSmartLigRoman;font-stretch:normal;font-variant:normal"><flowRegion
         id="flowRegion4065"><rect
           id="rect4067"
           width="74.285713"
           height="177.14285"
           x="145.71428"
           y="117.71429"
           style="-inkscape-font-specification:MrsEavesSmartLigRoman;font-family:MrsEavesSmartLigRoman;font-weight:normal;font-style:normal;font-stretch:normal;font-variant:normal;font-size:144px" /></flowRegion><flowPara
         id="flowPara4069" /></flowRoot>    <path
       sodipodi:type="arc"
       style="fill:#ffffff;fill-opacity:1;stroke:#000000;stroke-width:0;stroke-miterlimit:4;stroke-opacity:1;stroke-dasharray:none"
       id="path4650"
       sodipodi:cx="49.632652"
       sodipodi:cy="181.94286"
       sodipodi:rx="148.89796"
       sodipodi:ry="37.224491"
       d="m 198.53062,181.94286 a 148.89796,37.224491 0 1 1 -0.0425,-0.88893"
       transform="matrix(0.92197479,0,0,0.92197479,15.771325,541.32086)"
       sodipodi:start="0"
       sodipodi:end="6.259303"
       sodipodi:open="true" />
    <path
       sodipodi:type="arc"
       style="fill:#ffffff;fill-opacity:1;stroke:#000000;stroke-width:0;stroke-miterlimit:4;stroke-opacity:1;stroke-dasharray:none"
       id="path4660"
       sodipodi:cx="478.95511"
       sodipodi:cy="162.0898"
       sodipodi:rx="176.19592"
       sodipodi:ry="27.297958"
       d="m 655.15103,162.0898 a 176.19592,27.297958 0 1 1 -0.0465,-0.62738 l -176.14938,0.62738 z"
       transform="matrix(0.92197479,0,0,0.92197479,15.771325,541.32086)"
       sodipodi:start="0"
       sodipodi:end="6.2602008" />
    <path
       sodipodi:type="arc"
       style="fill:#ffffff;fill-opacity:1;stroke:#000000;stroke-width:0;stroke-miterlimit:4;stroke-opacity:1;stroke-dasharray:none"
       id="path4646"
       sodipodi:cx="270.49796"
       sodipodi:cy="539.29797"
       sodipodi:rx="196.04898"
       sodipodi:ry="86.85714"
       d="m 466.54694,539.29797 a 196.04898,86.85714 0 1 1 -1.7e-4,-0.11249 l -196.04881,0.11249 z"
       transform="matrix(0.92197479,0,0,0.92197479,15.771325,541.32086)"
       sodipodi:start="0"
       sodipodi:end="6.2818902" />
    <g
       style="font-size:374.81228638px;font-style:normal;font-variant:normal;font-weight:normal;font-stretch:normal;line-height:125%;letter-spacing:0px;word-spacing:0px;fill:#000000;fill-opacity:1;stroke:none;font-family:Dashicons;-inkscape-font-specification:Dashicons"
       id="text4071"
       transform="matrix(0.85275447,0,0,0.85275447,42.564571,109.86895)">
      <path
         d="m 235.9632,786.5706 71.69881,226.8755 6.65775,0 82.96577,-260.67636 c 3.07244,-9.21817 8.19415,-22.02179 8.19415,-22.02179 25.84469,-101.48242 132.60582,28.38245 17.77104,-110.8084 -171.17592,66.12698 -8.93403,2.65656 -38.7861,102.66688 -1.43979,9.90057 -3.91279,17.70163 -5.61592,24.52982 l -55.82266,176.17423 -71.69881,-225.85126 -7.68201,0 -71.69881,226.36338 -55.82265,-176.68635 c -2.39004,-7.51104 -3.58502,-13.48594 -3.58494,-17.9247 -8e-5,-7.85245 3.24344,-13.31521 9.73055,-16.3883 6.82837,-3.07252 18.26602,-4.60891 34.31301,-4.60921 l 0,-10.75482 -143.90974,0 0,10.75482 c 11.26695,3e-4 20.143938,0.68313 26.630969,2.04854 6.487029,1.02456 11.608361,3.07309 15.364029,6.1456 4.097047,3.0731 7.511283,7.34088 10.242686,12.80337 2.73135,5.46304 5.804154,13.31575 9.218422,23.55819 l 82.453634,260.67636 7.16988,0 72.21094,-226.8755"
         style="font-family:MrsEavesSmartLigRoman;-inkscape-font-specification:MrsEavesSmartLigRoman"
         id="path4086"
         inkscape:connector-curvature="0"
         sodipodi:nodetypes="cccccccccccccccccccccccccc" />
    </g>
    <flowRoot
       xml:space="preserve"
       id="flowRoot4075"
       style="fill:black;stroke:none;stroke-opacity:1;stroke-width:1px;stroke-linejoin:miter;stroke-linecap:butt;fill-opacity:1;font-family:Dashicons;font-style:normal;font-weight:normal;font-size:40px;line-height:125%;letter-spacing:0px;word-spacing:0px;-inkscape-font-specification:Dashicons;font-stretch:normal;font-variant:normal"><flowRegion
         id="flowRegion4077"><rect
           id="rect4079"
           width="200"
           height="280"
           x="-51.42857"
           y="154.85715" /></flowRegion><flowPara
         id="flowPara4081" /></flowRoot>    <path
       sodipodi:type="arc"
       style="fill:#ffffff;fill-opacity:1;stroke:#000000;stroke-width:0;stroke-miterlimit:4;stroke-opacity:1;stroke-dasharray:none"
       id="path4634"
       sodipodi:cx="580.70203"
       sodipodi:cy="502.07346"
       sodipodi:rx="153.86122"
       sodipodi:ry="129.04489"
       d="m 734.56325,502.07346 a 153.86122,129.04489 0 1 1 -0.0406,-2.96578 l -153.82058,2.96578 z"
       transform="matrix(0.92197479,0,0,0.92197479,15.771325,541.32086)"
       sodipodi:start="0"
       sodipodi:end="6.2602008" />
    <path
       sodipodi:type="arc"
       style="fill:#ffffff;fill-opacity:1;stroke:#000000;stroke-width:0;stroke-miterlimit:4;stroke-opacity:1;stroke-dasharray:none"
       id="path4640"
       sodipodi:cx="615.44489"
       sodipodi:cy="382.95511"
       sodipodi:rx="89.338776"
       sodipodi:ry="163.78775"
       d="m 704.78366,382.95511 a 89.338776,163.78775 0 1 1 -0.0236,-3.76425 l -89.31517,3.76425 z"
       transform="matrix(0.92197479,0,0,0.92197479,15.771325,541.32086)"
       sodipodi:start="0"
       sodipodi:end="6.2602008" />
    <path
       sodipodi:type="arc"
       style="fill:#ffffff;fill-opacity:1;stroke:#000000;stroke-width:0;stroke-miterlimit:4;stroke-opacity:1;stroke-dasharray:none"
       id="path4644"
       sodipodi:cx="69.485718"
       sodipodi:cy="484.70203"
       sodipodi:rx="208.45714"
       sodipodi:ry="81.893875"
       d="m 277.94286,484.70203 a 208.45714,81.893875 0 1 1 -10e-6,-0.0106 l -208.457132,0.0106 z"
       transform="matrix(0.92197479,0,0,0.92197479,15.771325,541.32086)"
       sodipodi:start="0"
       sodipodi:end="6.2830558" />
    <path
       sodipodi:type="arc"
       style="fill:#ffffff;fill-opacity:1;stroke:#000000;stroke-width:0;stroke-miterlimit:4;stroke-opacity:1;stroke-dasharray:none"
       id="path4648"
       sodipodi:cx="-14.889796"
       sodipodi:cy="405.28979"
       sodipodi:rx="84.375511"
       sodipodi:ry="32.261223"
       d="m 69.485715,405.28979 a 84.375511,32.261223 0 1 1 -0.02229,-0.74144 l -84.353225,0.74144 z"
       transform="matrix(0.92197479,0,0,0.92197479,15.771325,541.32086)"
       sodipodi:start="0"
       sodipodi:end="6.2602008" />
    <path
       sodipodi:type="arc"
       style="fill:#ffffff;fill-opacity:1;stroke:#000000;stroke-width:0;stroke-miterlimit:4;stroke-opacity:1;stroke-dasharray:none"
       id="path4654"
       sodipodi:cx="-29.779593"
       sodipodi:cy="226.61224"
       sodipodi:rx="84.375511"
       sodipodi:ry="32.261223"
       d="m 54.595919,226.61224 a 84.375511,32.261223 0 1 1 -0.0022,-0.2327"
       transform="matrix(0.92197479,0,0,0.92197479,15.771325,541.32086)"
       sodipodi:start="0"
       sodipodi:end="6.2759722"
       sodipodi:open="true" />
    <path
       sodipodi:type="arc"
       style="fill:#ffffff;fill-opacity:1;stroke:#000000;stroke-width:0;stroke-miterlimit:4;stroke-opacity:1;stroke-dasharray:none"
       id="path4658"
       sodipodi:cx="-74.448982"
       sodipodi:cy="149.68164"
       sodipodi:rx="114.1551"
       sodipodi:ry="49.632652"
       d="m 39.706116,149.68164 a 114.1551,49.632652 0 1 1 -0.003,-0.36129"
       transform="translate(0,540.36218)"
       sodipodi:start="0"
       sodipodi:end="6.2759059"
       sodipodi:open="true" />
    <path
       sodipodi:type="arc"
       style="fill:#ffffff;fill-opacity:1;stroke:#000000;stroke-width:0;stroke-miterlimit:4;stroke-opacity:1;stroke-dasharray:none"
       id="path4676"
       sodipodi:cx="585.66528"
       sodipodi:cy="124.86531"
       sodipodi:rx="134.00816"
       sodipodi:ry="64.522446"
       d="m 719.67345,124.86531 a 134.00816,64.522446 0 1 1 -0.0453,-1.6776 l -133.96286,1.6776 z"
       transform="matrix(0.92197479,0,0,0.92197479,15.771325,541.32086)"
       sodipodi:start="0"
       sodipodi:end="6.2571821" />
    <path
       sodipodi:type="arc"
       style="fill:#ffffff;fill-opacity:1;stroke:#000000;stroke-width:0;stroke-miterlimit:4;stroke-opacity:1;stroke-dasharray:none"
       id="path4678"
       sodipodi:cx="213.42041"
       sodipodi:cy="-21.55102"
       sodipodi:rx="109.19183"
       sodipodi:ry="42.187756"
       d="m 322.61224,-21.55102 a 109.19183,42.187756 0 1 1 -0.0369,-1.096893 l -109.15492,1.096893 z"
       transform="matrix(0.92197479,0,0,0.92197479,15.771325,541.32086)"
       sodipodi:start="0"
       sodipodi:end="6.2571821" />
    <path
       sodipodi:type="arc"
       style="fill:#ffffff;fill-opacity:1;stroke:#000000;stroke-width:0;stroke-miterlimit:4;stroke-opacity:1;stroke-dasharray:none"
       id="path4680"
       sodipodi:cx="235.7551"
       sodipodi:cy="-11.624488"
       sodipodi:rx="62.040817"
       sodipodi:ry="57.077549"
       d="m 297.79591,-11.624488 a 62.040817,57.077549 0 1 1 -0.021,-1.484032 l -62.01984,1.484032 z"
       transform="matrix(0.92197479,0,0,0.92197479,15.771325,541.32086)"
       sodipodi:start="0"
       sodipodi:end="6.2571821" />
    <path
       sodipodi:type="arc"
       style="fill:#ffffff;fill-opacity:1;stroke:#000000;stroke-width:0;stroke-miterlimit:4;stroke-opacity:1;stroke-dasharray:none"
       id="path4682"
       sodipodi:cx="416.91428"
       sodipodi:cy="194.35103"
       sodipodi:rx="84.375511"
       sodipodi:ry="14.889796"
       d="m 501.28979,194.35103 a 84.375511,14.889796 0 1 1 -0.0348,-0.42751"
       transform="matrix(0.92087698,0.04497857,-0.04497857,0.92087698,24.97064,522.78202)"
       sodipodi:start="0"
       sodipodi:end="6.25447"
       sodipodi:open="true" />
  </g>
</svg>
